<?xml version="1.0" encoding="UTF-8" standalone="no"?>
<!-- Created with Inkscape (http://www.inkscape.org/) -->

<svg
   width="210mm"
   height="297mm"
   viewBox="0 0 210 297"
   version="1.1"
   id="svg5"
   inkscape:version="1.1 (c4e8f9e, 2021-05-24)"
   sodipodi:docname="reto5_peper_mecatronica.svg"
   xmlns:inkscape="http://www.inkscape.org/namespaces/inkscape"
   xmlns:sodipodi="http://sodipodi.sourceforge.net/DTD/sodipodi-0.dtd"
   xmlns="http://www.w3.org/2000/svg"
   xmlns:svg="http://www.w3.org/2000/svg">
  <sodipodi:namedview
     id="namedview7"
     pagecolor="#ffffff"
     bordercolor="#666666"
     borderopacity="1.0"
     inkscape:pageshadow="2"
     inkscape:pageopacity="0.0"
     inkscape:pagecheckerboard="0"
     inkscape:document-units="mm"
     showgrid="false"
     inkscape:zoom="0.94236332"
     inkscape:cx="387.85465"
     inkscape:cy="550.21242"
     inkscape:window-width="1848"
     inkscape:window-height="1016"
     inkscape:window-x="72"
     inkscape:window-y="27"
     inkscape:window-maximized="1"
     inkscape:current-layer="layer2" />
  <defs
     id="defs2" />
  <g
     inkscape:groupmode="layer"
     id="layer2"
     inkscape:label="Capa 2"
     style="display:inline">
    <path
       style="display:inline;fill:none;stroke:#000000;stroke-width:0.2;stroke-linejoin:round;stroke-miterlimit:4;stroke-dasharray:none;stroke-opacity:1;paint-order:markers fill stroke"
       id="path4406-3"
       sodipodi:type="arc"
       sodipodi:cx="109.26053"
       sodipodi:cy="57.374458"
       sodipodi:rx="2.5848007"
       sodipodi:ry="3.0060258"
       sodipodi:start="0"
       sodipodi:end="6.2484147"
       sodipodi:open="true"
       sodipodi:arc-type="arc"
       d="m 111.84533,57.374458 a 2.5848007,3.0060258 0 0 1 -2.56233,3.005913 2.5848007,3.0060258 0 0 1 -2.60688,-2.953655 2.5848007,3.0060258 0 0 1 2.51701,-3.057261 2.5848007,3.0060258 0 0 1 2.65064,2.900503" />
    <path
       style="fill:none;stroke:#000000;stroke-width:0.264583px;stroke-linecap:butt;stroke-linejoin:miter;stroke-opacity:1"
       d="m 65.453862,223.76724 c -10.421725,14.36429 3.516466,19.45048 3.516466,19.45048 0,0 6.385521,0.78408 9.73214,0.0102 3.346622,-0.7739 5.481955,-1.80087 7.097972,-1.74336 1.616014,0.0575 6.723266,-0.48269 10.040426,-0.66111 3.317161,-0.17842 13.564054,-0.17736 14.295674,-0.2082 0.73162,-0.0308 7.70391,1.03572 7.70391,1.03572 l 9.85395,1.79974 c 0,0 -2.00857,0.12513 0,0 2.00857,-0.12514 8.04174,0.0551 10.42824,-0.71777 3.17521,-1.02829 4.07756,-8.20945 2.76927,-15.65512 -1.30829,-7.44566 -18.49705,-16.64524 -18.49705,-16.64524"
       id="path1352"
       sodipodi:nodetypes="ccssssccsssc" />
    <path
       style="fill:none;stroke:#000000;stroke-width:0.264583px;stroke-linecap:butt;stroke-linejoin:miter;stroke-opacity:1"
       d="m 122.39486,210.43258 c -3.29035,-5.9365 -4.78604,-10.6354 -4.78604,-10.6354 0,0 -1.10223,-0.6611 -0.55018,-6.53579 0.55205,-5.87469 0.43657,-5.5869 0.43657,-5.5869 l -0.69344,-0.97779 v -2.52533 l 1.23388,-0.56305 c 0,0 0.385,-4.89795 1.07971,-9.74512 0.69471,-4.84718 0.9989,-7.375 1.43352,-11.47194 0.43462,-4.09695 0.66079,-15.86068 0.66079,-15.86068 0,0 0.0648,-1.6741 -0.8879,-6.27462 -0.95266,-4.60052 -9.60585,-12.32301 -9.60585,-12.32301 0,0 -0.14962,1.01351 -4.76581,1.32355 -4.61618,0.31005 -11.263229,-1.50324 -11.263229,-1.50324"
       id="path1748" />
    <rect
       style="fill:none;stroke:#000000;stroke-width:0;stroke-linejoin:round;paint-order:markers fill stroke"
       id="rect2446"
       width="42.011433"
       height="27.106434"
       x="81.546402"
       y="84.459869"
       ry="0.29173046" />
    <rect
       style="fill:none;stroke:#000000;stroke-width:0;stroke-linejoin:round;paint-order:markers fill stroke"
       id="rect2514"
       width="36.987339"
       height="20.78875"
       x="84.028816"
       y="87.519676"
       ry="0.29172957" />
    <path
       style="fill:none;stroke:#000000;stroke-width:0.264583px;stroke-linecap:butt;stroke-linejoin:miter;stroke-opacity:1"
       d="M 81.743538,86.227646 81.5464,111.5663 h 42.01143 l -0.49836,-24.876399 z"
       id="path2629"
       sodipodi:nodetypes="ccccc" />
    <path
       style="fill:none;stroke:#000000;stroke-width:0.264583px;stroke-linecap:butt;stroke-linejoin:miter;stroke-opacity:1"
       d="m 84.028816,87.519676 c 36.987344,0 36.987344,0 36.987344,0 V 108.30842 H 84.028816 Z"
       id="path2797" />
    <path
       style="fill:none;stroke:#000000;stroke-width:0.264583px;stroke-linecap:butt;stroke-linejoin:miter;stroke-opacity:1"
       d="m 70.87015,93.396402 0.866291,-3.443986 c 0,0 0.917869,-4.378058 3.09458,-4.492911 2.176711,-0.114855 6.912515,0.768139 6.912515,0.768139 L 81.5464,84.459867 c 0,0 -0.27097,-0.832591 0.461283,-2.074121 0.732252,-1.241531 3.244223,-1.992572 3.244223,-1.992572 0,0 -0.18514,-0.0034 3.124078,-0.420193 3.309217,-0.41684 8.877501,-0.458002 8.877501,-0.458002 l 0.943842,-4.947007 c 0,0 -3.996015,-0.934312 0,0 3.996013,0.934316 8.321853,-0.183446 8.321853,-0.183446 l 1.07236,5.257692 9.46018,-0.08818 c 0,0 2.04867,0.118729 3.2342,0.614563 1.18553,0.495838 3.08915,2.804756 3.08915,2.804756 l 0.18276,1.486508 v 0 0 l 0,4e-6"
       id="path2799"
       sodipodi:nodetypes="ccsccscsccscccsccccc" />
    <path
       style="fill:none;stroke:#000000;stroke-width:0.264583px;stroke-linecap:butt;stroke-linejoin:miter;stroke-opacity:1"
       d="m 123.55783,84.459867 c 0.0106,1.288656 0.22906,1.093153 0.22906,1.093153 0,0 0.68287,-0.343533 2.05447,-0.343533 1.3716,0 1.81879,-0.2795 2.94401,0.279559 1.12523,0.559059 2.37404,0.674031 2.93386,1.790959 0.55982,1.116926 0.97887,0.732192 1.30154,2.077064 0.32267,1.344875 1.12273,6.013265 1.12273,6.013265 0,0 1.18246,3.351649 1.7335,5.656936 0.55104,2.30528 1.36049,4.83767 1.38034,6.0606 0.0198,1.22293 0.26748,3.52805 0.26748,3.52805 l 0.0589,6.4267 -1.23758,0.77011 0.48471,4.35956 0.62125,0.0626 c 0,0 -0.0727,4.67251 -0.22671,5.89565 -0.15398,1.22313 -0.4744,2.00639 -0.8993,3.47711 -0.42491,1.47072 -1.22487,8.68191 -1.22487,8.68191 0,0 -0.22619,-1.3191 0.0431,1.17595 0.26924,2.49506 0.20681,3.56897 0.38822,4.95126 0.18142,1.3823 0.84709,3.67865 0.84709,3.67865 0,0 0.34187,-0.34741 0,0.8011 -0.34188,1.14852 -1.92673,4.64928 -2.71016,4.92225 -0.78343,0.27298 -1.23433,0.0533 -1.23433,0.0533 l -1.05345,1.27002 c 0,0 -1.10673,1.8002 -2.36773,2.73466 -1.26099,0.93446 -2.38713,1.85374 -3.30785,1.48224 -0.92072,-0.37151 1.60813,-2.2781 1.60813,-2.2781 l 1.57042,-1.48953 -0.14197,-1.90166 c 0,0 0.048,-0.68142 -1.02297,5.3e-4 -1.07098,0.68183 -1.19427,1.49723 -2.43155,2.09093 -1.34229,0.64409 -3.37719,0.65805 -2.88671,-0.0728 0.49048,-0.73089 2.59323,-1.66849 2.59323,-1.66849 l 2.15658,-1.79797 1.80586,-1.60404 0.0824,-0.7022 c 0,0 0,0 -0.68551,-0.70293 -0.84769,-0.86921 -0.0809,-1.25107 -0.46162,-1.25107 -0.38079,0 -1.53818,-2.36957 -2.68486,-2.11951 -1.14668,0.25007 -4.456,2.61981 -4.456,2.61981 0,0 -1.91105,1.20936 -1.81772,-0.0287 0.0933,-1.23809 1.23085,-2.53382 1.23085,-2.53382 0,0 0.97927,-1.29157 2.23817,-1.56607 1.2589,-0.2745 1.98423,-0.49341 2.48533,-0.94623 0.50111,-0.45281 0.38382,-0.14253 1.11183,-1.86097 0.72801,-1.71844 1.1857,-3.87966 1.1857,-3.87966 l 0.12222,-2.59535 c 0,0 0.0543,0.63306 -0.006,-0.36781 -0.06,-1.00087 -0.0592,-1.59121 -0.17036,-3.86272 -0.11111,-2.27151 -0.65273,-5.79198 -0.65273,-5.79198 0,0 -0.14667,-2.34527 0.34848,-3.11282 0.49514,-0.76756 1.15461,-1.11968 1.15461,-1.11968 l -0.10122,-3.8243 -0.70484,-0.75174 c 0,0 -0.68094,-0.1153 -0.89936,-0.81001 -0.21842,-0.6947 -0.63627,-5.67853 -0.63627,-5.67853 l -0.15601,-4.37995 0.63428,-5.36233 c 0,0 -0.13213,-1.38695 -0.84722,-1.87934 -0.7151,-0.492383 -1.97676,-1.263812 -1.97676,-1.263812"
       id="path2895"
       sodipodi:nodetypes="ccsssscsccccccssccscssccssccccssccccssscscssscccccscccscccsc" />
    <path
       style="fill:none;stroke:#000000;stroke-width:0.264583px;stroke-linecap:butt;stroke-linejoin:miter;stroke-opacity:1"
       d="m 70.87015,93.396402 c -1.746998,6.163429 -2.486273,8.592888 -3.044753,11.886738 -0.558483,3.29385 -0.841653,4.95101 -0.800796,8.28254 0.04086,3.33153 -0.377304,3.87643 0.644893,4.39089 1.022196,0.51447 -0.2403,2.7931 -0.2403,2.7931 v 1.79815 l -0.470376,0.20676 c 0,0 -0.571662,0.68066 -0.465723,2.43589 0.105937,1.75523 0.962761,4.66555 1.304666,5.82318 0.341903,1.15762 1.155515,6.72237 1.155515,6.72237 0,0 0.117761,0.50095 0.570227,2.56648 0.452464,2.06553 -0.236934,5.57407 -0.236934,5.57407 0,0 -0.976818,3.37052 -0.578366,5.07371 0.398452,1.70319 2.737609,5.7781 2.737609,5.7781 l 1.240886,-0.28702 c 0,0 -0.417817,-0.0779 0.622278,1.39343 1.040096,1.47127 2.053342,3.11013 3.685019,3.8633 1.631678,0.75316 2.142487,0.29596 2.142487,0.29596 0,0 -0.700333,0.83495 0,0 0.700334,-0.83495 0.868109,-1.41799 0.868109,-1.41799 l -0.04153,-1.11277 c 0,0 0.521755,-0.29719 0.972441,-0.29719 0.450686,0 1.381316,0.14705 -0.159787,-1.28102 -1.541103,-1.42807 -4.25291,-5.18925 -4.25291,-5.18925 l -0.05846,-2.1425 1.785461,-1.99634 0.691203,-0.64057 c 0,0 -1.275506,-0.11552 0,0 1.275503,0.11552 5.742135,2.13002 5.742135,2.13002 l 1.494877,-1.27111 -6.543016,-3.32067 c 0,0 0.205354,0.93556 -0.692073,-1.19628 -0.897427,-2.13184 -1.40526,-9.51064 -1.40526,-9.51064 l 0.749549,-11.3363 -1.414386,-0.97579 0.20974,-4.03413 1.635139,-2.41306 c 0,0 -0.312913,2.24207 0,0 0.312912,-2.24208 0.438673,-8.73565 0.438673,-8.73565 0,0 -1.539443,-2.30898 -0.674319,-4.95381 0.865126,-2.644824 3.361499,-3.866696 3.361499,-3.866696"
       id="path3485" />
    <path
       style="fill:none;stroke:#000000;stroke-width:0.264583px;stroke-linecap:butt;stroke-linejoin:miter;stroke-opacity:1"
       d="m 96.289478,74.031609 c -5.225627,-5.543957 -5.722797,-7.222257 -7.3762,-8.047336 -1.653402,-0.82508 -2.629569,0.03723 -2.884122,-1.829078 -0.25455,-1.866307 -1.145902,-9.089869 -1.145902,-9.089869 l 1.616471,-2.010383 c 1.650334,-2.052498 5.168273,-5.476815 5.168273,-5.476815 0,0 1.099407,-1.132062 2.214896,-1.949018 1.115491,-0.816959 1.941642,-2.945781 4.821666,-3.260738 2.88002,-0.31496 7.19785,-0.236607 7.19785,-0.236607 0,0 3.53226,0.693611 4.49246,1.772978 0.96019,1.079368 4.36574,5.179963 4.36574,5.179963 0,0 0.28934,0.531503 1.92473,1.965584 1.63539,1.434081 2.30096,1.329443 2.64038,2.892992 0.33942,1.56355 -0.65691,10.789102 -0.65691,10.789102 0,0 -0.29026,0.563446 -1.68909,1.344165 -1.39883,0.780722 -6.04488,5.386977 -6.04488,5.386977 l -4.41566,2.921"
       id="path3487"
       sodipodi:nodetypes="csscscsscscsscscc" />
    <path
       style="fill:none;stroke:#000000;stroke-width:0.2;stroke-linejoin:round;stroke-miterlimit:4;stroke-dasharray:none;stroke-opacity:1;paint-order:markers fill stroke"
       id="path4406"
       sodipodi:type="arc"
       sodipodi:cx="95.766891"
       sodipodi:cy="57.695942"
       sodipodi:rx="2.5848007"
       sodipodi:ry="3.0060258"
       sodipodi:start="0"
       sodipodi:end="6.2484147"
       sodipodi:open="true"
       sodipodi:arc-type="arc"
       d="M 98.351692,57.695942 A 2.5848007,3.0060258 0 0 1 95.78936,60.701854 2.5848007,3.0060258 0 0 1 93.182481,57.7482 2.5848007,3.0060258 0 0 1 95.699493,54.690938 2.5848007,3.0060258 0 0 1 98.35013,57.591442" />
    <path
       style="fill:none;stroke:#000000;stroke-width:0.264583px;stroke-linecap:butt;stroke-linejoin:miter;stroke-opacity:1"
       d="m 100.48423,67.211982 4.17123,-0.08278 c 0,0 0.34928,0.04563 -0.195,0.933357 -0.54428,0.887722 -2.89548,0.440383 -2.89548,0.440383 0,0 -1.15519,-0.293108 -1.17255,-0.7332"
       id="path4591" />
    <path
       style="fill:none;stroke:#000000;stroke-width:0.264583px;stroke-linecap:butt;stroke-linejoin:miter;stroke-opacity:1"
       d="m 100.48423,67.211982 -0.0918,0.55776"
       id="path4593" />
    <ellipse
       style="fill:none;stroke:#000000;stroke-width:0.162412;stroke-linejoin:round;stroke-miterlimit:4;stroke-dasharray:none;stroke-opacity:1;paint-order:markers fill stroke"
       id="path4639"
       cx="102.54425"
       cy="49.766663"
       rx="0.67051697"
       ry="0.7116673" />
  </g>
  <g
     inkscape:label="Capa 1"
     inkscape:groupmode="layer"
     id="layer1"
     style="display:inline">
    <path
       style="fill:none;stroke:#000000;stroke-width:0.264583px;stroke-linecap:butt;stroke-linejoin:miter;stroke-opacity:1"
       d="m 94.686881,127.75326 c -7.386505,5.2592 -9.26619,10.34421 -9.26619,10.34421 -1.530922,8.55296 -1.588155,8.74328 -1.588155,8.74328 l -0.01317,11.11629 1.19625,11.86606 1.557768,11.85629 0.184593,2.26971 1.007356,0.48298 -0.0086,2.62188 -0.872233,0.52837 0.312387,3.64563 -1.153665,9.67501 c 0,0 1.153665,-9.67501 0,0 -1.085994,9.10749 -6.508433,11.42964 -6.508433,11.42964 0,0 4.12614,-2.92586 0.0539,-0.14511 -3.725246,2.5438 -7.024346,5.01471 -7.024346,5.01471 l -7.110481,6.56503"
       id="path1032"
       sodipodi:nodetypes="ccccccccccccscscc" />
    <path
       style="fill:none;stroke:#000000;stroke-width:0.264583px;stroke-linecap:butt;stroke-linejoin:miter;stroke-opacity:1"
       d="m 86.481403,111.96985 c 5.668973,13.83418 5.608571,13.96379 5.608571,13.96379 l 2.596907,1.81962"
       id="path1863" />
    <path
       style="fill:none;stroke:#000000;stroke-width:0.264583px;stroke-linecap:butt;stroke-linejoin:miter;stroke-opacity:1"
       d="m 118.49575,111.75336 c -5.97961,14.57716 -6.25936,14.62082 -6.25936,14.62082 l -1.52047,1.55877"
       id="path1865" />
  </g>
</svg>
