<?xml version="1.0" encoding="UTF-8" standalone="no"?>
<!-- Created with Inkscape (http://www.inkscape.org/) -->

<svg
   width="210mm"
   height="297mm"
   viewBox="0 0 210 297"
   version="1.1"
   id="svg5"
   inkscape:version="1.1 (c4e8f9e, 2021-05-24)"
   sodipodi:docname="reto1_cabeza_robot.svg"
   xmlns:inkscape="http://www.inkscape.org/namespaces/inkscape"
   xmlns:sodipodi="http://sodipodi.sourceforge.net/DTD/sodipodi-0.dtd"
   xmlns="http://www.w3.org/2000/svg"
   xmlns:svg="http://www.w3.org/2000/svg">
  <sodipodi:namedview
     id="namedview7"
     pagecolor="#ffffff"
     bordercolor="#666666"
     borderopacity="1.0"
     inkscape:pageshadow="2"
     inkscape:pageopacity="0.0"
     inkscape:pagecheckerboard="0"
     inkscape:document-units="mm"
     showgrid="false"
     showguides="true"
     inkscape:guide-bbox="true"
     inkscape:zoom="0.61580177"
     inkscape:cx="393.79555"
     inkscape:cy="606.52635"
     inkscape:window-width="1848"
     inkscape:window-height="1016"
     inkscape:window-x="72"
     inkscape:window-y="27"
     inkscape:window-maximized="1"
     inkscape:current-layer="layer1" />
  <defs
     id="defs2" />
  <g
     inkscape:label="Capa 1"
     inkscape:groupmode="layer"
     id="layer1">
    <path
       style="fill:#0080aa;stroke:#000000;stroke-width:0.965;stroke-linecap:butt;stroke-linejoin:miter;stroke-opacity:1;stroke-miterlimit:4;stroke-dasharray:none;fill-opacity:1"
       d="M 32.374406,110.49526 H 49.969192 V 87.62203 H 150.25948 v 22.87323 h 16.89099 v 15.8353 h -16.89099 v 49.26541 H 49.969192 V 126.33056 H 32.374406 Z"
       id="path897" />
    <ellipse
       style="stroke:#000000;stroke-width:0.93;stroke-miterlimit:4;stroke-dasharray:none;fill:#f9f9f9"
       id="path932"
       cx="75.287979"
       cy="118.41291"
       rx="8.3131895"
       ry="7.9350109" />
    <ellipse
       style="stroke:#000000;stroke-width:0.927125;stroke-miterlimit:4;stroke-dasharray:none;fill:#ffffff"
       id="path939"
       cx="124.62397"
       cy="118.41291"
       rx="8.1307735"
       ry="7.9365854" />
    <ellipse
       style="fill:#000000;stroke:#000000;stroke-width:1.11496;stroke-miterlimit:4;stroke-dasharray:none"
       id="path1189"
       cx="71.367355"
       cy="119.6404"
       rx="4.5867739"
       ry="4.9258986" />
    <ellipse
       style="fill:#000000;stroke:#000000;stroke-width:1.15152;stroke-miterlimit:4;stroke-dasharray:none"
       id="path1238"
       cx="121.59698"
       cy="119.35303"
       rx="4.770041"
       ry="5.2415061" />
    <path
       style="fill:#ffd5d5;stroke:#000000;stroke-width:1.465;stroke-linecap:butt;stroke-linejoin:miter;stroke-opacity:1;stroke-miterlimit:4;stroke-dasharray:none"
       d="m 75.305684,150.25947 h 49.617296 v 12.31636 H 75.305684 Z"
       id="path1353" />
    <path
       style="fill:none;stroke:#000000;stroke-width:0.465;stroke-linecap:butt;stroke-linejoin:miter;stroke-opacity:1;stroke-miterlimit:4;stroke-dasharray:none"
       d="m 79.269018,150.25947 0.03195,12.31636 h 2.937103 v -12.31636 h 3.164334 v 12.31636 h 3.877966 v -12.31636 h 3.15037 v 12.31636 h 3.145475 v -12.31636 h 2.665744 v 12.31636 h 3.56324 v -12.31636 c 0,0 1.73886,0 2.52461,0 0.78574,0 0.78574,0 0.78574,0 v 12.31636 h 4.14165 v -12.31636 h 3.17684 v 12.31636 h 4.17316 v -12.5645 h 3.19848 v 12.5645 h 3.68438 1.43292 v -12.31636 z"
       id="path1603" />
    <path
       id="path1933"
       style="fill:#ffff00;stroke:#000000;stroke-width:4.0252;stroke-linecap:butt;stroke-linejoin:miter;stroke-miterlimit:4;stroke-dasharray:none;stroke-opacity:1"
       d="M 204.12891 133.51562 A 26.659455 27.444071 0 0 0 177.4707 160.96094 A 26.659455 27.444071 0 0 0 201.96875 188.30859 L 302.13281 330.04297 L 330.42578 329.70117 L 223.97656 179.26367 A 26.659455 27.444071 0 0 0 230.78906 160.96094 A 26.659455 27.444071 0 0 0 204.12891 133.51562 z "
       transform="scale(0.26458333)" />
    <path
       id="path1933-3"
       style="fill:#ffff00;stroke:#000000;stroke-width:4.0252;stroke-linecap:butt;stroke-linejoin:round;stroke-miterlimit:4;stroke-dasharray:none;stroke-opacity:1;paint-order:normal"
       d="M 552.12109 131.34375 A 26.659455 27.444071 0 0 0 525.46094 158.78906 A 26.659455 27.444071 0 0 0 532.33398 177.16602 L 424.40039 329.70117 L 452.69336 330.04297 L 554.40234 186.12305 A 26.659455 27.444071 0 0 0 578.7793 158.78906 A 26.659455 27.444071 0 0 0 552.12109 131.34375 z "
       transform="scale(0.26458333)" />
  </g>
</svg>
